<svg viewBox="0 0 500 500" fill="none" xmlns="http://www.w3.org/2000/svg">
<path d="M64.1 252.3C64.1 217.1 72.3001 185.1 88.6001 156.4C91.7001 151 95.0001 145.9 98.6001 140.9L63.1 113.8C58.2 120.6 53.6001 127.7 49.4001 135.1C29.0001 171.1 18.8 210.2 18.8 252.4C18.8 303.1 33.2001 347.8 62 386.4L97.9001 360.2C75.5001 329.2 64.1 293.3 64.1 252.3Z" fill="white"/>
<path d="M88.6001 156.4C91.7001 151 95.0001 145.9 98.6001 140.9L63.1 113.8C58.2 120.6 53.6001 127.7 49.4001 135.1C29.0001 171.1 18.8 210.2 18.8 252.4C18.8 303.1 33.2001 347.8 62 386.4L97.9001 360.2C75.5001 329.2 64.2 293.3 64.2 252.2C64.1 217 72.3001 185.1 88.6001 156.4Z" fill="white"/>
<path d="M414.1 86.5C369.3 42.1 313.7 20 247.2 20C206.2 20 168.1 30.2 132.8 50.6C110.6 63.5 91.4 79.5 75.1 98.6L110.4 125.5L110.7 125.7C123.7 111 139 98.4 156.8 88C185.9 71.1 216.7 62.6 249.2 62.6C282.3 62.6 313.6 71.1 343.1 88C372.6 104.9 395.5 127.5 411.7 155.6C427.9 183.8 436.1 215.3 436.1 250.1C436.1 285.1 428 317 411.7 345.7C395.5 374.4 372.8 397 343.8 413.5C314.8 430 283.3 438.3 249.2 438.3C198.2 438.3 154.6 420.3 118.4 384.4C115.4 381.5 112.7 378.5 110 375.4L109.3 375.9L74.2 401.6C77.9 405.9 81.9 410.1 86 414.2C130.8 458.8 185.7 481 250.8 481C315.1 481 369.6 458.6 414.3 413.9C459 369.1 481.3 314.6 481.3 250.4C481.3 185.5 458.9 130.9 414.1 86.5Z" fill="white"/>
<path d="M97.9001 360.2L61.9001 386.5L97.9001 360.2Z" fill="white"/>
<path d="M368.7 303.9L403.8 322.4C392.3 345 379 363.3 363.9 377.2C348.8 391.1 331.8 401.7 312.9 408.9C294 416.1 272.7 419.8 248.8 419.8C196 419.8 154.7 402.5 124.9 367.9C95.2 333.1 80.2 294 80.2 250.3C80.2 209.2 92.8 172.6 118 140.5C150 99.6 192.8 79.2 246.4 79.2C301.6 79.2 345.7 100.1 378.7 142C402.1 171.6 414.1 208.5 414.5 252.7H123.1C123.9 290.3 135.9 321.2 159.2 345.2C182.4 369.3 211.2 381.3 245.3 381.3C261.8 381.3 277.8 378.4 293.4 372.7C309 367 322.3 359.4 333.2 349.9C344.1 340.4 356 325 368.7 303.9ZM368.7 216.7C363.1 194.5 355 176.7 344.4 163.4C333.8 150.1 319.7 139.4 302.2 131.3C284.7 123.2 266.3 119.1 247.1 119.1C215.3 119.1 188 129.3 165.2 149.8C148.5 164.7 135.9 187 127.3 216.8H368.7V216.7Z" fill="white"/>
</svg>
